<svg width="189" height="203" viewBox="0 0 189 203" fill="none" xmlns="http://www.w3.org/2000/svg">
<g filter="url(#filter0_d_1243_8167)">
<path d="M124.102 119.878C144.256 88.1409 142.444 50.8874 120.055 36.6701C97.6666 22.4529 63.1791 36.6557 43.0253 68.3929C22.8715 100.13 24.6834 137.384 47.0721 151.601C69.4608 165.818 103.948 151.615 124.102 119.878Z" fill="#F6F6F6"/>
<path d="M121.827 36.0809C123.393 37.0847 124.917 38.2441 126.343 39.4605C144.94 55.9582 145.252 91.0326 126.075 121.173C106.928 151.363 75.0093 166.033 52.2148 156.167C50.4876 155.454 48.8516 154.556 47.2857 153.552C27.5464 141.002 23.3771 110.982 35.8179 82.1637C23.7907 110.217 27.8575 139.376 47.0938 151.624C47.5968 151.926 48.0997 152.227 48.6027 152.529C71.0066 165.252 104.453 150.949 124.162 119.909C143.752 89.0039 142.588 52.9087 121.807 37.8687C121.247 37.4683 120.687 37.0679 120.077 36.696C102.039 25.2693 76.1927 32.2261 56.2865 51.8695C76.6633 31.5599 103.307 24.2746 121.827 36.0809Z" fill="#EAEAEA"/>
<path d="M121.827 36.0808L131.272 42.075C154.22 56.6536 156.092 94.7738 135.47 127.196C114.877 159.667 79.5517 174.133 56.6314 159.603L47.187 153.609C48.7528 154.613 50.4382 155.482 52.116 156.224C74.9598 166.061 106.829 151.419 125.977 121.23C145.124 91.0401 144.862 55.9373 126.244 39.5173C124.917 38.244 123.442 37.0561 121.827 36.0808Z" fill="url(#paint0_linear_1243_8167)"/>
<path d="M116.222 58.8503C113.202 54.8708 109.36 52.089 105.135 50.5807C105.057 50.5599 104.98 50.539 104.902 50.5181L104.824 50.4973C104.718 50.4271 104.59 50.4347 104.484 50.3645C104.329 50.3227 104.222 50.2525 104.095 50.2601C103.939 50.2184 103.833 50.1482 103.706 50.1558L111.631 32.8881L113.14 32.0832C103.157 29.0308 91.8211 30.2449 80.6983 35.0193L80.6642 35.3021L81.5335 51.9671L81.4842 51.9956C81.3361 52.081 81.209 52.0886 81.061 52.174C80.9623 52.231 80.8636 52.2879 80.7364 52.2955C74.7908 54.8716 69.2609 58.8521 64.7008 63.2595L57.1516 50.9756L57.1022 51.004C56.9827 51.1388 56.8347 51.2242 56.7644 51.3305C56.5956 51.4937 56.476 51.6285 56.3071 51.7917C51.4871 56.5465 46.9955 62.0982 43.0791 68.3047C40.2082 72.7897 37.8041 77.3999 35.8385 82.0859C35.6355 82.532 35.4818 82.9495 35.2788 83.3955C35.2371 83.5512 35.1669 83.6575 35.1251 83.8131C35.0549 83.9194 35.0132 84.075 34.9923 84.1528L48.7408 87.0056C48.6288 87.2675 48.5169 87.5294 48.4049 87.7913C45.9935 93.9843 44.586 100.321 44.4027 107.07L29.0136 112.202L28.746 112.422C28.3547 125.079 31.4629 136.506 37.8654 144.979L37.8291 143.092L37.8006 143.043L37.8291 143.092L50.638 129.386C50.6949 129.485 50.7519 129.584 50.8582 129.654C50.9151 129.753 51.0214 129.823 51.0784 129.922C51.1068 129.971 51.1353 130.02 51.1638 130.07C53.6712 133.161 56.6986 135.558 60.2668 137.182C60.3446 137.203 60.4509 137.273 60.5287 137.294C60.5287 137.294 60.5287 137.294 60.6065 137.315C60.7128 137.385 60.7906 137.406 60.9462 137.447L61.0241 137.468C61.1019 137.489 61.2082 137.559 61.286 137.58C61.3144 137.629 61.3638 137.601 61.3923 137.65C61.4986 137.721 61.5764 137.741 61.732 137.783C62.1495 137.937 62.7227 138.132 63.2959 138.328L55.3915 155.518L55.6403 157.544L65.0848 163.539C74.8914 166.627 86.0868 165.626 97.1185 161.035L87.674 155.041L86.5844 153.039L85.7644 136.346C85.9125 136.26 86.089 136.224 86.1876 136.167C91.5621 133.855 97.185 130.15 102.491 124.983L110.097 137.366L111.631 139.111L121.075 145.106C126.36 140.017 131.288 134.082 135.556 127.344C138.96 121.959 141.77 116.457 143.916 110.943L134.471 104.949L132.327 104.082L118.324 101.244C120.834 94.9945 122.416 88.162 122.584 81.1589L138.199 75.9626C138.191 75.8354 138.241 75.807 138.199 75.9626L140.433 76.1863L149.877 82.1805C150.037 69.9203 146.874 58.8542 140.564 50.6562L131.12 44.662L129.235 45.1576L116.222 58.8503ZM93.4876 31.651C93.1346 31.7231 92.7531 31.746 92.4002 31.8181C92.7323 31.8238 93.1346 31.7231 93.4876 31.651Z" fill="url(#paint1_linear_1243_8167)"/>
<path d="M108.516 56.3251C109.473 56.9569 110.38 57.6173 111.189 58.3346C122.866 69.2231 122.891 91.8342 110.453 111.312C98.0927 130.81 77.614 140.457 62.7853 134.479C61.7376 134.031 60.7602 133.477 59.832 132.894C44.946 123.397 43.717 98.5868 57.1798 77.4658C70.6141 56.2954 93.5809 46.8565 108.516 56.3251Z" fill="white"/>
<path d="M79.5114 58.2644L79.8191 60.8493C76.6176 62.368 73.475 64.4446 70.5109 66.9444L69.5199 64.8854C72.7517 62.1653 76.0916 59.9748 79.5114 58.2644Z" fill="#F6F6F6"/>
<path d="M97.2102 54.6279L96.1705 57.7272C93.2155 57.3935 90.0859 57.5552 86.9166 58.3318L87.1516 55.4338C90.5961 54.5642 94.0008 54.3094 97.2102 54.6279Z" fill="#F6F6F6"/>
<path d="M115.226 67.3832C116.681 70.3589 117.698 73.718 118.145 77.3409L115.444 78.702C114.992 75.4112 114.117 72.2988 112.727 69.549L115.226 67.3832Z" fill="#F6F6F6"/>
<path d="M118.286 85.6781C118.006 89.5232 117.146 93.5051 115.828 97.4888L113.389 97.2519C114.624 93.5794 115.322 89.8879 115.597 86.375L118.286 85.6781Z" fill="#F6F6F6"/>
<path d="M97.353 121.436L98.4578 123.693C95.2545 126.462 91.8444 128.759 88.3468 130.448L88.0238 127.609C91.2253 126.091 94.3395 123.965 97.353 121.436Z" fill="#F6F6F6"/>
<path d="M80.9829 130.226L80.7347 133.329C77.2902 134.198 73.8361 134.481 70.549 134.142L71.6095 130.965C74.6423 131.319 77.8136 131.002 80.9829 130.226Z" fill="#F6F6F6"/>
<path d="M62.488 127.81C63.4446 128.442 64.4714 128.967 65.5684 129.387L63.9632 132.418C62.8377 131.949 61.7824 131.374 60.7765 130.771C59.2107 129.767 57.8137 128.6 56.5363 127.298L58.6806 124.745C59.8232 125.927 61.0569 126.926 62.488 127.81Z" fill="#F6F6F6"/>
<path d="M52.1181 110.182C52.5702 113.473 53.4948 116.557 54.8844 119.306L52.4554 121.366C51.0013 118.39 50.033 115.003 49.5865 111.38L52.1181 110.182Z" fill="#F6F6F6"/>
<path d="M54.1294 91.3283C52.8734 95.0786 52.1261 98.7985 51.9083 102.41L49.4658 102.965C49.7956 99.091 50.6264 95.0599 51.9449 91.0761L54.1294 91.3283Z" fill="#F6F6F6"/>
<path d="M62.878 71.6123L64.2978 73.1608C62.7513 75.0399 61.2617 77.0176 59.886 79.1927C59.0928 80.4397 58.3282 81.736 57.6413 83.0532L55.73 82.2488C56.4871 80.8253 57.2727 79.4511 58.136 78.0979C59.6313 75.788 61.2119 73.6261 62.878 71.6123Z" fill="#F6F6F6"/>
<path d="M112.121 106.337C111.343 107.839 110.487 109.319 109.574 110.701C108.128 112.982 106.568 115.066 104.952 117.052L103.319 115.363C104.845 113.561 106.285 111.612 107.591 109.543C108.454 108.19 109.24 106.816 109.926 105.499L112.121 106.337Z" fill="#F6F6F6"/>
<path d="M106.983 57.9993C108.577 59.0524 110.052 60.2403 111.28 61.5705L109.115 64.2012C107.915 62.9203 106.596 61.7742 105.059 60.8197C104.159 60.2865 103.259 59.7533 102.318 59.3758L103.874 56.3732C104.921 56.821 105.977 57.3959 106.983 57.9993Z" fill="#F6F6F6"/>
<path d="M110.472 111.285C123.897 90.1444 122.852 65.4325 108.139 56.0892C93.4256 46.746 70.6153 56.3095 57.1907 77.45C43.7661 98.5905 44.8108 123.302 59.5242 132.646C74.2375 141.989 97.0479 132.425 110.472 111.285Z" fill="white"/>
<path d="M111.189 58.3346C110.38 57.6173 109.444 56.9076 108.516 56.3251C93.5808 46.8565 70.614 56.2954 57.1797 77.4658C43.7454 98.6361 44.9744 123.447 59.9098 132.915C60.8664 133.547 61.8647 134.023 62.863 134.5C61.5819 133.989 60.2932 133.352 59.124 132.579C44.1601 123.062 42.9805 98.2225 56.4642 77.0237C69.9478 55.8248 92.9355 46.3081 107.871 55.7767C109.089 56.5205 110.16 57.3497 111.189 58.3346Z" fill="#F2F2F2"/>
<path d="M105.009 60.8482C118.195 69.2218 119.319 91.0016 107.562 109.494C95.805 127.986 75.6241 136.212 62.4387 127.838C62.4102 127.789 62.3324 127.768 62.3324 127.768C75.3755 135.895 95.3723 127.578 107.108 109.164C118.816 90.6999 117.855 69.089 104.903 60.7779C104.952 60.7495 104.981 60.7988 105.009 60.8482Z" fill="#E6E6E6"/>
<path d="M107.132 109.152C118.889 90.6395 117.848 68.9183 104.807 60.6363C91.7663 52.3542 71.6637 60.6474 59.9068 79.1597C48.15 97.672 49.1909 119.393 62.2319 127.675C75.2728 135.957 95.3754 127.664 107.132 109.152Z" fill="white"/>
<path d="M105.631 108.201C116.661 90.8319 115.698 70.4624 103.481 62.7044C91.2645 54.9465 72.4194 62.738 61.3896 80.1072C50.3598 97.4764 51.3222 117.846 63.5391 125.604C75.7559 133.362 94.601 125.57 105.631 108.201Z" fill="white"/>
<path d="M65.4133 101.194C66.3303 104.151 69.8015 104.581 71.7184 105.053C74.2787 105.615 76.0511 103.671 76.8097 99.287C77.4925 95.3412 76.4711 92.7735 75.9849 89.7655C75.6867 87.7671 74.7414 86.4709 73.5361 85.5222C72.9193 85.0231 72.6459 83.8654 72.5774 82.721C72.4633 80.8137 73.3456 78.9233 74.8371 77.4048C76.3286 75.8864 77.79 75.5693 78.6422 76.5902C79.3597 77.4916 79.6901 78.7479 79.3449 80.6572C77.2434 91.6044 81.2295 96.8021 82.6945 95.6936C84.7725 94.1656 86.2808 89.9407 87.1933 86.849C88.489 82.4838 89.5096 78.2116 89.5774 74.2261C89.5981 72.4383 90.4936 70.3429 91.8656 68.9592C92.6114 68.2 93.769 67.9266 94.4902 68.0365C95.834 68.3135 95.732 72.5818 94.3278 74.7076C91.2804 79.2286 90.2257 83.7836 89.0933 88.3177C88.7802 89.485 88.4957 90.7015 88.4579 91.7757C87.6917 96.0327 90.6332 94.8614 91.47 93.918C94.9161 90.0877 97.0071 86.6448 98.8569 81.3021C99.7296 78.8253 101.183 76.671 103.157 75.5321C104.242 74.9056 104.844 75.1504 104.998 76.4428C105.254 78.5969 104.087 81.7038 102.243 83.2944C101.638 83.8411 101.032 84.3877 100.434 85.0616C97.2484 88.5445 95.3471 91.7464 93.818 96.0491C92.6872 99.3325 91.9588 102.515 90.9552 105.791C89.6728 109.951 87.5381 113.091 83.3517 115.638C81.6039 116.713 79.913 117.886 78.4289 117.821C75.8421 117.67 74.0693 116.193 73.2301 113.258C71.9029 108.564 68.3235 107.604 64.3588 107.459C63.2846 107.421 61.9296 107.808 61.0584 107.324C60.4776 107.002 59.9423 105.732 60.3748 104.43C62.1411 99.3988 65.026 99.8387 65.4133 101.194Z" fill="url(#paint2_linear_1243_8167)"/>
</g>
<defs>
<filter id="filter0_d_1243_8167" x="-24.8608" y="-10.2981" width="232.99" height="231.697" filterUnits="userSpaceOnUse" color-interpolation-filters="sRGB">
<feFlood flood-opacity="0" result="BackgroundImageFix"/>
<feColorMatrix in="SourceAlpha" type="matrix" values="0 0 0 0 0 0 0 0 0 0 0 0 0 0 0 0 0 0 127 0" result="hardAlpha"/>
<feOffset dx="-4" dy="13"/>
<feGaussianBlur stdDeviation="12"/>
<feComposite in2="hardAlpha" operator="out"/>
<feColorMatrix type="matrix" values="0 0 0 0 0 0 0 0 0 0 0 0 0 0 0 0 0 0 1 0"/>
<feBlend mode="normal" in2="BackgroundImageFix" result="effect1_dropShadow_1243_8167"/>
<feBlend mode="normal" in="SourceGraphic" in2="effect1_dropShadow_1243_8167" result="shape"/>
</filter>
<linearGradient id="paint0_linear_1243_8167" x1="72.7067" y1="169.759" x2="147.32" y2="52.2613" gradientUnits="userSpaceOnUse">
<stop stop-color="#F3F3F3"/>
<stop offset="0.2192" stop-color="#A5A5A5"/>
<stop offset="0.5628" stop-color="#9A9A9A"/>
<stop offset="0.8294" stop-color="#A5A3A4"/>
<stop offset="1" stop-color="#F5F5F5"/>
</linearGradient>
<linearGradient id="paint1_linear_1243_8167" x1="30.0176" y1="131.95" x2="148.436" y2="63.6124" gradientUnits="userSpaceOnUse">
<stop offset="0.1147" stop-color="#29ABE2"/>
<stop offset="1" stop-color="#662D91"/>
</linearGradient>
<linearGradient id="paint2_linear_1243_8167" x1="60.2828" y1="107.343" x2="104.528" y2="108.126" gradientUnits="userSpaceOnUse">
<stop offset="0.1147" stop-color="#29ABE2"/>
<stop offset="1" stop-color="#662D91"/>
</linearGradient>
</defs>
</svg>
