<svg width="43" height="37" viewBox="0 0 43 37" fill="none" xmlns="http://www.w3.org/2000/svg">
<g filter="url(#filter0_dd_1243_5325)">
<path d="M28.8706 11.4568C28.8706 11.4568 28.8706 11.4568 28.8343 11.4568C27.4553 10.8035 26.0037 10.3681 24.5158 10.114C24.4795 10.0777 24.4432 10.114 24.4432 10.114C24.2254 10.4769 24.044 10.8761 23.8988 11.239C22.2657 10.985 20.6327 10.985 18.9996 11.239C18.8545 10.8761 18.673 10.4769 18.4553 10.114C18.4553 10.114 18.419 10.0777 18.3827 10.114C16.8948 10.3681 15.4432 10.8035 14.0641 11.4568C14.0278 11.4568 14.0278 11.4568 14.0278 11.4568C11.2698 15.5939 10.5077 19.6221 10.8706 23.614C10.8706 23.614 10.8706 23.6503 10.9069 23.6503C12.5036 24.8479 14.3182 25.7552 16.2416 26.3358C16.2416 26.3721 16.2778 26.3358 16.3141 26.3358C16.7133 25.7552 17.0762 25.1745 17.4028 24.5576C17.4028 24.5213 17.4028 24.485 17.3666 24.4487C16.7859 24.231 16.2053 23.9769 15.6972 23.6503C15.6609 23.6503 15.6246 23.5777 15.6972 23.5414C15.8061 23.4689 15.9149 23.3963 16.0238 23.2874C16.0238 23.2874 16.0601 23.2874 16.0964 23.2874C19.5803 24.8842 23.3545 24.8842 26.802 23.2874C26.8383 23.2874 26.8383 23.2874 26.8746 23.2874C26.9835 23.3963 27.0924 23.4689 27.2012 23.5414C27.2375 23.5777 27.2375 23.6503 27.2012 23.6503C26.6569 23.9769 26.1125 24.231 25.5319 24.4487C25.4956 24.485 25.4956 24.5213 25.4956 24.5576C25.8222 25.1745 26.1851 25.7552 26.5843 26.3358C26.6206 26.3358 26.6206 26.3721 26.6569 26.3358C28.5803 25.7552 30.3948 24.8479 31.9916 23.6503C32.0278 23.6503 32.0278 23.614 32.0278 23.614C32.4633 19.0052 31.2658 15.0132 28.8706 11.4568ZM17.9109 21.1826C16.8585 21.1826 15.9875 20.2027 15.9875 19.0414C15.9875 17.8439 16.8585 16.9003 17.9109 16.9003C18.9996 16.9003 19.8343 17.8439 19.8343 19.0414C19.8343 20.2027 18.9633 21.1826 17.9109 21.1826ZM24.9875 21.1826C23.9351 21.1826 23.1004 20.2027 23.1004 19.0414C23.1004 17.8439 23.9351 16.9003 24.9875 16.9003C26.0762 16.9003 26.9472 17.8439 26.9109 19.0414C26.9109 20.2027 26.0762 21.1826 24.9875 21.1826Z" fill="#09031D"/>
</g>
<defs>
<filter id="filter0_dd_1243_5325" x="0.786133" y="0.0979004" width="41.3301" height="36.2542" filterUnits="userSpaceOnUse" color-interpolation-filters="sRGB">
<feFlood flood-opacity="0" result="BackgroundImageFix"/>
<feColorMatrix in="SourceAlpha" type="matrix" values="0 0 0 0 0 0 0 0 0 0 0 0 0 0 0 0 0 0 127 0" result="hardAlpha"/>
<feOffset/>
<feGaussianBlur stdDeviation="5"/>
<feComposite in2="hardAlpha" operator="out"/>
<feColorMatrix type="matrix" values="0 0 0 0 0.160784 0 0 0 0 0.670588 0 0 0 0 0.886275 0 0 0 1 0"/>
<feBlend mode="normal" in2="BackgroundImageFix" result="effect1_dropShadow_1243_5325"/>
<feColorMatrix in="SourceAlpha" type="matrix" values="0 0 0 0 0 0 0 0 0 0 0 0 0 0 0 0 0 0 127 0" result="hardAlpha"/>
<feOffset/>
<feGaussianBlur stdDeviation="4.5"/>
<feComposite in2="hardAlpha" operator="out"/>
<feColorMatrix type="matrix" values="0 0 0 0 0.160784 0 0 0 0 0.670588 0 0 0 0 0.886275 0 0 0 1 0"/>
<feBlend mode="normal" in2="effect1_dropShadow_1243_5325" result="effect2_dropShadow_1243_5325"/>
<feBlend mode="normal" in="SourceGraphic" in2="effect2_dropShadow_1243_5325" result="shape"/>
</filter>
</defs>
</svg>
