<svg width="23" height="23" viewBox="0 0 23 23" fill="none" xmlns="http://www.w3.org/2000/svg">
<g clip-path="url(#clip0_797_13129)">
<path d="M11.1154 21.8311C16.8311 21.8311 21.4647 17.1976 21.4647 11.4818C21.4647 5.7661 16.8311 1.13257 11.1154 1.13257C5.39964 1.13257 0.766113 5.7661 0.766113 11.4818C0.766113 17.1976 5.39964 21.8311 11.1154 21.8311Z" fill="url(#paint0_linear_797_13129)"/>
<path d="M13.397 21.9399H8.73047L9.84006 11.4817H12.2874L13.397 21.9399Z" fill="white"/>
<path d="M13.397 1.02881H8.73047L9.84006 11.4818H12.2874L13.397 1.02881Z" fill="white"/>
<path d="M3.17212 18.7356L0.838867 14.6913L10.4519 10.4241L11.6755 12.5447L3.17212 18.7356Z" fill="white"/>
<path d="M21.2883 8.27746L18.9551 4.23315L10.4517 10.4241L11.6753 12.5447L21.2883 8.27746Z" fill="white"/>
<path d="M21.2883 14.6913L18.9551 18.7356L10.4517 12.5447L11.6753 10.4241L21.2883 14.6913Z" fill="white"/>
<path d="M3.17212 4.23315L0.838867 8.27746L10.4519 12.5447L11.6755 10.4241L3.17212 4.23315Z" fill="white"/>
<path d="M11.1157 18.1081C14.7754 18.1081 17.7421 15.1414 17.7421 11.4817C17.7421 7.82198 14.7754 4.85522 11.1157 4.85522C7.45602 4.85522 4.48926 7.82198 4.48926 11.4817C4.48926 15.1414 7.45602 18.1081 11.1157 18.1081Z" fill="white" stroke="url(#paint1_linear_797_13129)" stroke-width="1.17" stroke-miterlimit="10"/>
<path d="M7.57398 10.9478C7.81249 11.5389 8.54876 11.9589 8.97393 12.2285C9.52354 12.5759 9.88649 12.4204 9.98501 11.7463C10.0732 11.1397 9.82427 10.6004 9.67909 10.0405C9.58576 9.67232 9.37836 9.36122 9.10874 9.08123C8.97393 8.94123 8.89097 8.70791 8.85986 8.50569C8.80801 8.16867 8.97393 7.93015 9.26947 7.82645C9.56502 7.71757 9.87612 7.80571 10.068 8.06496C10.2391 8.28792 10.322 8.5368 10.2754 8.82716C9.97982 10.4864 10.8924 11.7619 11.1931 11.7204C11.6079 11.6582 11.8775 11.093 12.0279 10.6523C12.2405 10.0301 12.4116 9.41307 12.3649 8.7442C12.3442 8.44866 12.5049 8.17385 12.7849 8.07533C12.9405 8.02348 13.179 8.0857 13.3293 8.17904C13.6197 8.36051 13.656 9.07604 13.3812 9.299C12.7953 9.77083 12.6294 10.4397 12.4531 11.1086C12.4064 11.2797 12.3546 11.4611 12.3649 11.6323C12.2664 12.2804 12.8627 12.3685 13.0286 12.2907C13.7027 11.9745 14.1071 11.5908 14.4337 10.8752C14.5841 10.5434 14.8641 10.3101 15.2737 10.3153C15.4915 10.3153 15.6315 10.4138 15.6781 10.6523C15.7611 11.0412 15.5485 11.456 15.1856 11.5493C15.0611 11.5804 14.9419 11.6219 14.8278 11.6685C14.2004 11.9434 13.8323 12.3011 13.573 12.8922C13.376 13.3329 13.2671 13.8151 13.0908 14.2662C12.8782 14.8521 12.4634 15.1684 11.6079 15.1944C11.245 15.2047 10.9079 15.2462 10.5813 15.0751C10.0317 14.7951 9.63761 14.3751 9.41465 13.7892C9.06207 12.8559 8.29988 12.3478 7.45472 11.933C7.22139 11.8189 6.9414 11.7567 6.74956 11.5856C6.61993 11.4715 6.49031 11.2071 6.5629 11.0308C6.84807 10.3204 7.46509 10.673 7.57398 10.953V10.9478Z" fill="url(#paint2_linear_797_13129)"/>
<path d="M11.1154 22.1578C17.0115 22.1578 21.7913 17.378 21.7913 11.4818C21.7913 5.58569 17.0115 0.805908 11.1154 0.805908C5.21923 0.805908 0.439453 5.58569 0.439453 11.4818C0.439453 17.378 5.21923 22.1578 11.1154 22.1578Z" stroke="url(#paint3_linear_797_13129)" stroke-width="1.26" stroke-miterlimit="10"/>
</g>
<defs>
<linearGradient id="paint0_linear_797_13129" x1="0.766113" y1="11.4818" x2="21.4699" y2="11.4818" gradientUnits="userSpaceOnUse">
<stop offset="0.11" stop-color="#29ABE2"/>
<stop offset="1" stop-color="#662D91"/>
</linearGradient>
<linearGradient id="paint1_linear_797_13129" x1="4.18853" y1="0.484261" x2="18.0481" y2="0.484261" gradientUnits="userSpaceOnUse">
<stop offset="0.11" stop-color="#29ABE2"/>
<stop offset="1" stop-color="#662D91"/>
</linearGradient>
<linearGradient id="paint2_linear_797_13129" x1="7.68805" y1="11.4352" x2="14.7552" y2="11.57" gradientUnits="userSpaceOnUse">
<stop offset="0.11" stop-color="#29ABE2"/>
<stop offset="1" stop-color="#662D91"/>
</linearGradient>
<linearGradient id="paint3_linear_797_13129" x1="0.117982" y1="0.484437" x2="22.118" y2="0.484437" gradientUnits="userSpaceOnUse">
<stop offset="0.11" stop-color="#29ABE2"/>
<stop offset="1" stop-color="#662D91"/>
</linearGradient>
<clipPath id="clip0_797_13129">
<rect width="22" height="22" fill="white" transform="translate(0.118164 0.484375)"/>
</clipPath>
</defs>
</svg>
