<svg width="22" height="29" viewBox="0 0 22 29" fill="none" xmlns="http://www.w3.org/2000/svg">
<path d="M2.44463 10.776C2.44463 15.3736 6.18495 19.1139 10.7825 19.1139C15.3801 19.1139 19.1204 15.3736 19.1204 10.776C19.1204 6.17848 15.3801 2.43816 10.7825 2.43816C6.18495 2.43816 2.44463 6.17848 2.44463 10.776ZM10.7825 3.54987C14.7671 3.54987 18.0087 6.79144 18.0087 10.776C18.0087 14.7606 14.7671 18.0022 10.7825 18.0022C6.79791 18.0022 3.55634 14.7606 3.55634 10.776C3.55634 6.79144 6.79791 3.54987 10.7825 3.54987Z" fill="url(#paint0_linear_1349_14275)"/>
<path d="M5.63474 9.78505L7.78934 11.908L7.29363 14.8916C7.2591 15.0994 7.34487 15.3087 7.51532 15.4324C7.68555 15.5562 7.91115 15.5729 8.0981 15.4761L10.7825 14.0821L13.4667 15.4761C13.6521 15.5723 13.8777 15.5573 14.0495 15.4324C14.2199 15.3087 14.3057 15.0994 14.2712 14.8916L13.7755 11.908L15.9301 9.78505C16.0801 9.6374 16.1337 9.41766 16.0686 9.21725C16.0035 9.01705 15.8308 8.87092 15.6226 8.83944L12.6325 8.38932L11.2795 5.68363C11.1855 5.49538 10.9929 5.37639 10.7825 5.37639C10.5719 5.37639 10.3795 5.49538 10.2853 5.68363L8.93232 8.38932L5.94219 8.83944C5.73397 8.8707 5.56134 9.01705 5.49621 9.21725C5.43107 9.41766 5.48491 9.6374 5.63474 9.78505ZM9.38331 9.44567C9.56223 9.41874 9.71682 9.30649 9.79781 9.14472L10.7825 7.17512L11.7672 9.14472C11.8482 9.30649 12.0028 9.41874 12.1817 9.44567L14.358 9.77332L12.7897 11.3182C12.6609 11.4452 12.6019 11.627 12.6314 11.8055L12.9923 13.977L11.0385 12.9626C10.9584 12.9209 10.8704 12.9 10.7825 12.9C10.6946 12.9 10.6066 12.9209 10.5263 12.9626L8.57254 13.977L8.93341 11.8055C8.96316 11.627 8.9041 11.4452 8.77512 11.3182L7.20699 9.77332L9.38331 9.44567Z" fill="url(#paint1_linear_1349_14275)"/>
<path d="M11.3384 0.770581C11.3384 1.07761 11.0895 1.32644 10.7825 1.32644C10.4755 1.32644 10.2267 1.07761 10.2267 0.770581C10.2267 0.463555 10.4755 0.214722 10.7825 0.214722C11.0895 0.214722 11.3384 0.463555 11.3384 0.770581Z" fill="url(#paint2_linear_1349_14275)"/>
<path d="M8.16281 0.542374C3.48686 1.73595 0.221191 5.94419 0.221191 10.776C0.221191 13.777 1.48295 16.6047 3.69791 18.6074L0.349082 24.5092C0.241385 24.6992 0.254847 24.9346 0.383389 25.1109C0.511932 25.2874 0.73167 25.3723 0.945545 25.3278L4.74862 24.5381L6.08529 28.3047C6.15781 28.5097 6.34346 28.6532 6.56015 28.6725C6.77685 28.6918 6.98465 28.5826 7.09213 28.3935L10.7825 21.9056L14.4727 28.3935C14.5721 28.5683 14.7571 28.6745 14.9556 28.6745C14.9719 28.6745 14.9884 28.6738 15.0046 28.6725C15.2213 28.6532 15.407 28.5095 15.4797 28.3047L16.8162 24.5381L20.6193 25.3278C20.8329 25.3721 21.0529 25.2872 21.1814 25.1109C21.3102 24.9346 21.3234 24.6992 21.2157 24.5092L17.8669 18.6074C20.0819 16.6047 21.3436 13.777 21.3436 10.776C21.3436 5.94419 18.0779 1.73595 13.4022 0.542374C13.1045 0.466378 12.8021 0.645946 12.7261 0.943418C12.6501 1.24089 12.8296 1.54357 13.1271 1.61957C17.3104 2.68742 20.2321 6.45272 20.2321 10.776C20.2321 16.0378 15.9587 20.2256 10.7825 20.2256C5.6026 20.2256 1.33291 16.0343 1.33291 10.776C1.33291 6.45272 4.25443 2.68742 8.4377 1.61957C8.73517 1.54357 8.91474 1.24089 8.83896 0.943418C8.76296 0.645946 8.4605 0.466378 8.16281 0.542374ZM6.72669 26.7878L5.6343 23.7095C5.54137 23.4477 5.26952 23.2946 4.99745 23.351L1.92221 23.9896L4.57252 19.3187C6.11786 20.4421 7.94763 21.1265 9.85036 21.2959L6.72669 26.7878ZM16.5673 23.351C16.2955 23.2946 16.0234 23.4477 15.9305 23.7095L14.8383 26.7878L11.7144 21.2959C13.6174 21.1265 15.4469 20.4421 16.9925 19.3187L19.6428 23.9896L16.5673 23.351Z" fill="url(#paint3_linear_1349_14275)"/>
<defs>
<linearGradient id="paint0_linear_1349_14275" x1="2.20156" y1="4.07663" x2="23.679" y2="4.79696" gradientUnits="userSpaceOnUse">
<stop stop-color="#00B7F0"/>
<stop offset="1" stop-color="#4819BE"/>
</linearGradient>
<linearGradient id="paint1_linear_1349_14275" x1="2.20156" y1="4.07663" x2="23.679" y2="4.79696" gradientUnits="userSpaceOnUse">
<stop stop-color="#00B7F0"/>
<stop offset="1" stop-color="#4819BE"/>
</linearGradient>
<linearGradient id="paint2_linear_1349_14275" x1="2.20156" y1="4.07663" x2="23.679" y2="4.79696" gradientUnits="userSpaceOnUse">
<stop stop-color="#00B7F0"/>
<stop offset="1" stop-color="#4819BE"/>
</linearGradient>
<linearGradient id="paint3_linear_1349_14275" x1="2.20156" y1="4.07663" x2="23.679" y2="4.79696" gradientUnits="userSpaceOnUse">
<stop stop-color="#00B7F0"/>
<stop offset="1" stop-color="#4819BE"/>
</linearGradient>
</defs>
</svg>
