<svg width="29" height="24" viewBox="0 0 29 24" fill="none" xmlns="http://www.w3.org/2000/svg">
<path fill-rule="evenodd" clip-rule="evenodd" d="M0.727051 15.3234C0.727051 15.7976 1.08527 16.182 1.52715 16.182H7.98127C8.42315 16.182 8.78136 15.7976 8.78136 15.3234V8.45439C8.78136 7.98018 8.42315 7.59576 7.98127 7.59576H1.52715C1.08527 7.59576 0.727051 7.98018 0.727051 8.45439V15.3234ZM2.32725 14.4648V9.31302H7.18117V14.4648H2.32725Z" fill="url(#paint0_linear_1349_14278)"/>
<path fill-rule="evenodd" clip-rule="evenodd" d="M18.0142 22.9489C18.2739 22.7994 18.4359 22.5087 18.4359 22.1924V1.58537C18.4359 1.26911 18.2739 0.978449 18.0142 0.828862C17.7546 0.679274 17.4393 0.69498 17.1937 0.869739L7.53915 7.73876C7.17086 8.00079 7.07024 8.53361 7.31441 8.92884C7.55859 9.32408 8.05509 9.43206 8.42338 9.17003L16.8357 3.18482V20.593L8.42338 14.6078C8.05509 14.3457 7.55859 14.4537 7.31441 14.849C7.07024 15.2442 7.17086 15.777 7.53915 16.039L17.1937 22.9081C17.4393 23.0828 17.7546 23.0985 18.0142 22.9489Z" fill="url(#paint1_linear_1349_14278)"/>
<path fill-rule="evenodd" clip-rule="evenodd" d="M24.325 18.5645C24.6375 18.8998 25.144 18.8998 25.4565 18.5645C27.0487 16.8558 28.0371 14.4937 28.0371 11.8889C28.0371 9.28418 27.0487 6.92198 25.4565 5.21331C25.144 4.878 24.6375 4.878 24.325 5.21331C24.0125 5.54863 24.0125 6.09228 24.325 6.4276C25.6304 7.82853 26.4369 9.75947 26.4369 11.8889C26.4369 14.0184 25.6304 15.9493 24.325 17.3502C24.0125 17.6856 24.0125 18.2292 24.325 18.5645Z" fill="url(#paint2_linear_1349_14278)"/>
<path fill-rule="evenodd" clip-rule="evenodd" d="M22.0632 16.1373C22.3757 16.4726 22.8823 16.4726 23.1947 16.1372C24.2074 15.0505 24.8366 13.5469 24.8366 11.8889C24.8366 10.2309 24.2074 8.72729 23.1947 7.64056C22.8823 7.30525 22.3757 7.30525 22.0632 7.64056C21.7507 7.97587 21.7507 8.51953 22.0632 8.85484C22.789 9.63374 23.2364 10.706 23.2364 11.8889C23.2364 13.0717 22.789 14.144 22.0632 14.923C21.7507 15.2583 21.7508 15.802 22.0632 16.1373Z" fill="url(#paint3_linear_1349_14278)"/>
<path fill-rule="evenodd" clip-rule="evenodd" d="M19.8017 13.7103C20.1142 14.0457 20.6208 14.0457 20.9332 13.7103C21.3667 13.2451 21.6363 12.6 21.6363 11.8889C21.6363 11.1778 21.3667 10.5327 20.9332 10.0675C20.6208 9.73215 20.1142 9.73215 19.8017 10.0675C19.4893 10.4028 19.4893 10.9464 19.8017 11.2817C19.9474 11.4381 20.0361 11.6516 20.0361 11.8889C20.0361 12.1263 19.9474 12.3397 19.8017 12.4961C19.4893 12.8314 19.4893 13.375 19.8017 13.7103Z" fill="url(#paint4_linear_1349_14278)"/>
<defs>
<linearGradient id="paint0_linear_1349_14278" x1="3.28755" y1="3.75606" x2="31.0032" y2="5.28824" gradientUnits="userSpaceOnUse">
<stop stop-color="#00B7F0"/>
<stop offset="1" stop-color="#4819BE"/>
</linearGradient>
<linearGradient id="paint1_linear_1349_14278" x1="3.28755" y1="3.75606" x2="31.0032" y2="5.28824" gradientUnits="userSpaceOnUse">
<stop stop-color="#00B7F0"/>
<stop offset="1" stop-color="#4819BE"/>
</linearGradient>
<linearGradient id="paint2_linear_1349_14278" x1="3.28755" y1="3.75606" x2="31.0032" y2="5.28824" gradientUnits="userSpaceOnUse">
<stop stop-color="#00B7F0"/>
<stop offset="1" stop-color="#4819BE"/>
</linearGradient>
<linearGradient id="paint3_linear_1349_14278" x1="3.28755" y1="3.75606" x2="31.0032" y2="5.28824" gradientUnits="userSpaceOnUse">
<stop stop-color="#00B7F0"/>
<stop offset="1" stop-color="#4819BE"/>
</linearGradient>
<linearGradient id="paint4_linear_1349_14278" x1="3.28755" y1="3.75606" x2="31.0032" y2="5.28824" gradientUnits="userSpaceOnUse">
<stop stop-color="#00B7F0"/>
<stop offset="1" stop-color="#4819BE"/>
</linearGradient>
</defs>
</svg>
