<svg width="28" height="27" viewBox="0 0 28 27" fill="none" xmlns="http://www.w3.org/2000/svg">
<path d="M3.86594 21.0749C2.98173 21.0749 2.11788 20.8493 1.33498 20.4097C0.932173 20.2022 0.776158 19.6832 1.0168 19.2928C1.81633 18.0152 2.10504 16.4535 1.73897 14.9847C1.35955 13.4621 0.810544 12.1797 0.814474 10.5678C0.828098 4.91271 5.53509 0.328133 11.1845 0.437842C16.6411 0.547747 21.1381 5.13468 21.1381 10.5927C21.1382 17.721 13.6677 22.7257 7.07251 19.973C6.16347 20.6866 5.02087 21.0749 3.86594 21.0749ZM2.79152 19.3345C4.03388 19.7204 5.43114 19.4121 6.38918 18.4859C6.62523 18.2577 6.97833 18.2002 7.27451 18.3419C12.9209 21.0415 19.5662 16.8101 19.5661 10.5927C19.5661 5.95327 15.7919 2.10286 11.1528 2.00946C6.37202 1.91449 2.39795 5.78645 2.38642 10.5716C2.38268 12.1026 2.98002 13.3262 3.30646 14.7765C3.65039 16.3049 3.46923 17.9211 2.79152 19.3345Z" fill="url(#paint0_linear_1349_14272)"/>
<path d="M24.2228 26.8975C23.068 26.8975 21.9253 26.5091 21.0164 25.7957C17.509 27.2595 13.3369 26.5929 10.4611 24.1094C10.1326 23.8256 10.0963 23.3293 10.38 23.0007C10.6637 22.6723 11.16 22.6359 11.4885 22.9197C14.0391 25.1223 17.7745 25.6178 20.8143 24.1646C21.1104 24.0228 21.4635 24.0803 21.6997 24.3086C22.6576 25.2347 24.055 25.5432 25.2973 25.1571C24.4978 23.4896 24.3871 21.5792 25.0066 19.8107C25.0122 19.7948 25.0183 19.7791 25.0248 19.7635C25.4773 18.6969 25.7053 17.5633 25.7025 16.3943C25.6975 14.3332 25.0119 12.4266 23.7196 10.8805C23.4412 10.5474 23.4856 10.0518 23.8186 9.77342C24.1516 9.49499 24.6474 9.5394 24.9257 9.87245C26.4345 11.6776 27.2687 13.9924 27.2744 16.3905C27.2778 17.764 27.0113 19.097 26.4824 20.353C25.9268 21.9612 26.1823 23.683 27.072 25.1153C27.3128 25.5058 27.1567 26.0248 26.7537 26.2324C25.971 26.6718 25.1069 26.8975 24.2228 26.8975Z" fill="url(#paint1_linear_1349_14272)"/>
<path d="M10.9767 11.8749C11.6636 11.8749 12.2204 11.3184 12.2204 10.6319C12.2204 9.94536 11.6636 9.38884 10.9767 9.38884C10.2899 9.38884 9.73305 9.94536 9.73305 10.6319C9.73305 11.3184 10.2899 11.8749 10.9767 11.8749Z" fill="url(#paint2_linear_1349_14272)"/>
<path d="M6.39326 11.8749C7.08012 11.8749 7.63693 11.3184 7.63693 10.6319C7.63693 9.94537 7.08012 9.38885 6.39326 9.38885C5.7064 9.38885 5.14959 9.94537 5.14959 10.6319C5.14959 11.3184 5.7064 11.8749 6.39326 11.8749Z" fill="url(#paint3_linear_1349_14272)"/>
<path d="M15.5575 11.8749C16.2444 11.8749 16.8012 11.3184 16.8012 10.6319C16.8012 9.94536 16.2444 9.38884 15.5575 9.38884C14.8706 9.38884 14.3138 9.94536 14.3138 10.6319C14.3138 11.3184 14.8706 11.8749 15.5575 11.8749Z" fill="url(#paint4_linear_1349_14272)"/>
<defs>
<linearGradient id="paint0_linear_1349_14272" x1="3.29526" y1="4.02664" x2="30.1754" y2="5.24128" gradientUnits="userSpaceOnUse">
<stop stop-color="#00B7F0"/>
<stop offset="1" stop-color="#4819BE"/>
</linearGradient>
<linearGradient id="paint1_linear_1349_14272" x1="3.29526" y1="4.02664" x2="30.1754" y2="5.24128" gradientUnits="userSpaceOnUse">
<stop stop-color="#00B7F0"/>
<stop offset="1" stop-color="#4819BE"/>
</linearGradient>
<linearGradient id="paint2_linear_1349_14272" x1="3.29526" y1="4.02664" x2="30.1754" y2="5.24128" gradientUnits="userSpaceOnUse">
<stop stop-color="#00B7F0"/>
<stop offset="1" stop-color="#4819BE"/>
</linearGradient>
<linearGradient id="paint3_linear_1349_14272" x1="3.29526" y1="4.02664" x2="30.1754" y2="5.24128" gradientUnits="userSpaceOnUse">
<stop stop-color="#00B7F0"/>
<stop offset="1" stop-color="#4819BE"/>
</linearGradient>
<linearGradient id="paint4_linear_1349_14272" x1="3.29526" y1="4.02664" x2="30.1754" y2="5.24128" gradientUnits="userSpaceOnUse">
<stop stop-color="#00B7F0"/>
<stop offset="1" stop-color="#4819BE"/>
</linearGradient>
</defs>
</svg>
